<svg xmlns="http://www.w3.org/2000/svg" id="Layer_1" viewBox="0 0 539.4 177.4"><defs><style> .st0 { fill: #fff; } </style></defs><g><path class="st0" d="M53.1,1c15,0,27.6,4.8,37.6,14.3,10,9.5,15,21.5,15,35.8s-5.1,26.2-15.1,35.6c-10.1,9.4-22.8,14.1-38.2,14.1s-26.9-4.7-36.7-14.1S1,65.5,1,51.4,5.9,24.8,15.8,15.3C25.6,5.8,38,1,53.1,1ZM53.6,14.2c-11.1,0-20.3,3.5-27.5,10.4-7.2,7-10.8,15.9-10.8,26.7s3.6,19.2,10.8,26.2c7.2,7,16.2,10.4,27,10.4s19.9-3.6,27.2-10.7c7.3-7.1,10.9-16,10.9-26.6s-3.6-19-10.9-26c-7.3-7-16.2-10.6-26.8-10.6h0Z"></path><path class="st0" d="M165,53.2v46.6h-12.8v-35.7c0-7.1-1-12.1-2.9-14.9-1.9-2.8-5.2-4.2-10-4.2s-5.1.6-7.3,1.8c-2.2,1.2-4.7,3.3-7.6,6.4v46.6h-12.7V35.6h12.7v8.4c6.5-6.5,12.8-9.7,19-9.7s14.4,3.9,18.9,11.6c6.8-7.8,13.9-11.7,21.2-11.7s11.4,2.3,15.4,6.8c4,4.6,6,11.5,6,20.8v37.8h-12.7v-38c0-5.3-1.1-9.4-3.3-12.3-2.2-2.8-5.3-4.2-9.4-4.2s-10.1,2.7-14.7,7.9h0Z"></path><path class="st0" d="M268.6,68.8h-45.1c.3,6.1,2.4,11,6.2,14.6,3.8,3.6,8.7,5.4,14.7,5.4s16.1-2.6,23.1-7.8v12.4c-3.9,2.6-7.8,4.5-11.6,5.6-3.8,1.1-8.3,1.7-13.5,1.7s-12.8-1.5-17.1-4.4c-4.4-2.9-7.9-6.9-10.5-11.8s-3.9-10.7-3.9-17.2c0-9.8,2.8-17.7,8.3-23.8,5.5-6.1,12.7-9.2,21.5-9.2s15.3,3,20.4,8.9c5.1,5.9,7.6,13.9,7.6,23.9v1.6h0ZM223.8,61.2h32.3c-.3-5.1-1.8-9-4.5-11.7-2.7-2.7-6.3-4.1-10.9-4.1s-8.3,1.4-11.2,4.1-4.8,6.6-5.7,11.7h0Z"></path><path class="st0" d="M276.2,57.8c0-6.8,2.5-12.2,7.5-16.2s11.8-6,20.5-6h26.4v9.9h-13c2.5,2.6,4.2,4.9,5.2,7,1,2.1,1.5,4.5,1.5,7.2s-1,6.6-2.9,9.9c-1.9,3.2-4.4,5.7-7.4,7.4s-7.9,3.1-14.7,4.1c-4.8.7-7.2,2.4-7.2,4.9s.9,2.7,2.7,3.7c1.8.9,5,1.9,9.7,3,7.9,1.7,12.9,3.1,15.2,4,2.2,1,4.3,2.4,6.1,4.2,3.1,3.1,4.6,6.9,4.6,11.6s-2.7,10.9-8.1,14.6-12.6,5.4-21.7,5.4-16.5-1.8-21.9-5.5c-5.5-3.6-8.2-8.5-8.2-14.7,0-8.7,5.4-14.3,16.1-16.8-4.3-2.7-6.4-5.5-6.4-8.1s.9-3.9,2.8-5.6c1.8-1.7,4.3-2.9,7.4-3.7-9.4-4.2-14.1-10.9-14.1-20.3h0ZM297,102.7c-4.3,0-7.8.9-10.5,2.7s-4.1,4.1-4.1,7c0,6.6,6,9.9,17.8,9.9s10-.8,13.1-2.5,4.6-4,4.6-7-2-5.4-5.9-7.3-8.9-2.8-15.1-2.8h0ZM300,46.6c-3.4,0-6.4,1.2-8.8,3.5s-3.6,5.1-3.6,8.4,1.2,6,3.5,8.2c2.4,2.2,5.4,3.2,9,3.2s6.6-1.1,9-3.3c2.4-2.2,3.6-5,3.6-8.3s-1.2-6.1-3.6-8.4c-2.4-2.2-5.4-3.3-9.1-3.3h0Z"></path><path class="st0" d="M380.6,61.2v27.2c0,2.2.7,3.3,2.2,3.3s3.9-1.1,7.2-3.4v7.7c-2.9,1.9-5.2,3.1-6.9,3.8s-3.6,1-5.5,1c-5.4,0-8.6-2.1-9.6-6.4-5.4,4.2-11.1,6.3-17.2,6.3s-8.2-1.5-11.1-4.4-4.5-6.6-4.5-11.1,1.5-7.6,4.4-10.8c2.9-3.2,7-5.7,12.4-7.6l16.2-5.6v-3.4c0-7.7-3.9-11.6-11.6-11.6s-13.7,3.6-20.2,10.7v-13.9c4.9-5.8,12-8.7,21.2-8.7s12.5,1.8,16.6,5.4c1.4,1.2,2.6,2.7,3.8,4.6,1.1,1.9,1.8,3.9,2.1,5.8.3,1.9.5,5.6.5,11h0ZM368.2,87.1v-19l-8.5,3.3c-4.3,1.7-7.4,3.4-9.2,5.2s-2.7,3.9-2.7,6.5.9,4.8,2.5,6.5c1.7,1.7,3.9,2.5,6.6,2.5,4,0,7.8-1.6,11.2-4.9h0Z"></path><path class="st0" d="M257.6,124.9h7.3v51h-7.3v-22.2h-28.7v22.2h-7.3v-51h7.3v22.1h28.7v-22.1Z"></path><path class="st0" d="M299.4,159.7h-23.6c.2,3.2,1.2,5.8,3.2,7.7s4.5,2.9,7.7,2.9,8.4-1.4,12.1-4.1v6.5c-2,1.4-4.1,2.3-6.1,2.9-2,.6-4.4.9-7.1.9s-6.7-.8-9-2.3-4.1-3.6-5.5-6.2c-1.4-2.6-2.1-5.6-2.1-9,0-5.1,1.5-9.3,4.4-12.5s6.7-4.8,11.3-4.8,8,1.6,10.7,4.7c2.6,3.1,4,7.3,4,12.5v.8h0ZM275.9,155.7h16.9c-.2-2.6-1-4.7-2.4-6.1-1.4-1.4-3.3-2.1-5.7-2.1s-4.3.7-5.9,2.1c-1.5,1.4-2.5,3.5-3,6.1h0Z"></path><path class="st0" d="M326.2,155.7v14.3c0,1.1.4,1.7,1.2,1.7s2.1-.6,3.8-1.8v4.1c-1.5,1-2.7,1.6-3.6,2s-1.9.5-2.9.5c-2.9,0-4.5-1.1-5-3.4-2.8,2.2-5.8,3.3-9,3.3s-4.3-.8-5.8-2.3-2.3-3.5-2.3-5.8.8-4,2.3-5.7,3.7-3,6.5-4l8.5-2.9v-1.8c0-4-2-6.1-6.1-6.1s-7.2,1.9-10.6,5.6v-7.3c2.6-3,6.3-4.6,11.1-4.6s6.5.9,8.7,2.9c.7.6,1.4,1.4,2,2.4s1,2,1.1,3,.2,2.9.2,5.8h0ZM319.7,169.2v-10l-4.5,1.7c-2.3.9-3.9,1.8-4.8,2.7s-1.4,2.1-1.4,3.4.4,2.5,1.3,3.4c.9.9,2,1.3,3.5,1.3,2.1,0,4.1-.9,5.9-2.6h0Z"></path><path class="st0" d="M335.6,124.9h6.6v51h-6.6v-51Z"></path><path class="st0" d="M345.7,147.6l12.5-12.3v6.9h10.6v6h-10.6v16.4c0,3.8,1.6,5.8,4.8,5.8s4.9-.8,7.6-2.4v6.2c-2.6,1.4-5.3,2.1-8.4,2.1s-5.6-.9-7.6-2.7c-.6-.5-1.2-1.1-1.6-1.8s-.8-1.6-1-2.6-.4-3.1-.4-6.2v-14.9h-5.8v-.7h0Z"></path><path class="st0" d="M373.7,124.9h6.6v21.8c2.8-3.4,6.2-5.1,10.3-5.1s4.2.6,6,1.7c1.8,1.1,3.1,2.7,4,4.6.9,2,1.3,4.9,1.3,8.8v19.1h-6.6v-20.8c0-2.5-.6-4.4-1.8-5.9s-2.8-2.2-4.8-2.2-2.8.4-4.1,1.1c-1.3.8-2.7,2-4.3,3.8v24.1h-6.6v-51h0Z"></path><path class="st0" d="M433.4,168v6.6c-3.3,1.2-6.6,1.9-9.8,1.9-5.3,0-9.5-1.6-12.6-4.7s-4.7-7.3-4.7-12.5,1.5-9.5,4.6-12.8,7-4.9,12-4.9,3.3.2,4.7.5c1.4.3,3.1.9,5.1,1.8v7.1c-3.4-2.1-6.5-3.2-9.3-3.2s-5.5,1.1-7.4,3.2-2.9,4.8-2.9,8.1,1,6.2,3.1,8.2,4.9,3,8.4,3,5.5-.7,8.8-2.2h0Z"></path><path class="st0" d="M460.6,155.7v14.3c0,1.1.4,1.7,1.2,1.7s2.1-.6,3.8-1.8v4.1c-1.5,1-2.7,1.6-3.6,2s-1.9.5-2.9.5c-2.8,0-4.5-1.1-5-3.4-2.8,2.2-5.8,3.3-9,3.3s-4.3-.8-5.8-2.3-2.3-3.5-2.3-5.8.8-4,2.3-5.7,3.7-3,6.5-4l8.5-2.9v-1.8c0-4-2-6.1-6.1-6.1s-7.2,1.9-10.6,5.6v-7.3c2.6-3,6.3-4.6,11.1-4.6s6.5.9,8.7,2.9c.7.6,1.4,1.4,2,2.4.6,1,1,2,1.1,3s.2,2.9.2,5.8h0ZM454,169.2v-10l-4.5,1.7c-2.3.9-3.9,1.8-4.8,2.7-.9.9-1.4,2.1-1.4,3.4s.4,2.5,1.3,3.4c.9.9,2,1.3,3.5,1.3,2.1,0,4.1-.9,5.9-2.6h0Z"></path><path class="st0" d="M477,142.3v7.7l.4-.6c3.2-5.2,6.4-7.8,9.6-7.8s5.1,1.3,7.8,3.8l-3.5,5.8c-2.3-2.2-4.5-3.3-6.4-3.3s-4,1-5.6,3.1c-1.6,2-2.4,4.5-2.4,7.3v17.6h-6.7v-33.6h6.7Z"></path><path class="st0" d="M525.1,159.7h-23.6c.2,3.2,1.2,5.8,3.2,7.7s4.5,2.9,7.7,2.9,8.4-1.4,12.1-4.1v6.5c-2,1.4-4.1,2.3-6.1,2.9s-4.4.9-7.1.9-6.7-.8-9-2.3-4.1-3.6-5.5-6.2c-1.4-2.6-2.1-5.6-2.1-9,0-5.1,1.5-9.3,4.3-12.5,2.9-3.2,6.7-4.8,11.3-4.8s8,1.6,10.7,4.7c2.7,3.1,4,7.3,4,12.5v.8h0ZM501.6,155.7h16.9c-.2-2.6-1-4.7-2.4-6.1-1.4-1.4-3.3-2.1-5.7-2.1s-4.3.7-5.9,2.1-2.5,3.5-3,6.1Z"></path><path class="st0" d="M412.1,17.6c-.9.6-1.8,1.2-2.7,1.8,27.9-15.1,62.9-6.2,79.4,20.9,16.5,27.1,8.4,62.2-17.8,80.2,1-.5,1.9-1,2.8-1.5,28.4-17.3,37.5-54,20.5-82S440.5.3,412.1,17.6h0Z"></path><path class="st0" d="M487.2,66.4c3.2-7.2.2-15.6-2-20.5-3.5-7.6-6.2-11.3-12-13.6-.6-.1-1.2,0-1.2,0-.8.2-2.7,1.2-4.8,2.2-3.6.9-6.7-2.1-8.7-.8-3.3,2.7,2.5,2,.3,3.8-1,.8-2.4,4.3-1.4,4.7,2.4.9,1.1-1.8,2.6-.9,1.5,1,3.8,1.6-1.7,3.7-1.5.6.6,2.3-.7,3.1-.8.5-2.2-.9-2.5.2-1.4,4.4.5,4.8.8,4.7,7.1-.2,1.8-1.6,3.8-.7.8.3,1.8-1.7,2.8.6l4.4,2.8,1.6,3c-.3.9-1.1,2.1-2.8,1.4-1.5-.6-2-.5-2.2-1-.3-.8.4-1.8-.1-2.4-.2-.2-.5-.5-3.5.2-1.6.4-1.9.6-3.2.8-1.6.3-1.6,0-2.1.3-1.3.6-1.3,1.7-2.8,3.6-1.5,2-2.2,1.6-2.9,3.1-.4.7-.5,1.8-.8,4-.3,2.2-.5,3.3-.4,3.7.2,3.3,3.3,6.9,6.2,7,1.6,0,2-1.1,4.6-1.2,1,0,2,0,3.1.6.7.3,1.5.8,1.8,1.6.3.9-.3,1.3-.3,2.7,0,.8.3,1.4.7,2.4,1,2.2,1.6,2.1,1.8,3.3.3,1.7-1.1,2-1.1,4.2,0,1.6.7,1.6,1.4,4.5.2.8.1.8.6,3.7.6,4,.8,4.5,1.3,4.9,1.1.9,2.9.4,3.5.1,1.8-.6,2.8-1.9,4.3-4,1-1.3,1.5-2,1.7-3.1.2-1.3-.2-1.8.1-2.8.5-1.3,1.6-1.1,2.4-2.2,1.4-1.9-.5-4.1.3-7.4.2-.8,0-1.3,2.8-4.8,3.3-4.2,4.8-7.1,4.4-7.4-.5-.5-3,1.8-4.2.9-.4-.3-.2-.7-.8-1.7-.6-1-1.1-1.2-1.8-2s-.4-1-1.4-3.3c-.9-2.1.8-1.9,1.5-1.4,2.3,1.3,3.7,1.8,5.2,1.5l1.8-2.1h0Z"></path><g><path class="st0" d="M452.4,26.2c0-2.9-3.9-3.9-9.3-3.7-3.9.2-6.7.8-8.6,1.4-2.1.7-1.7,3.8.5,3.9h.1c2.2,0,3.9.9,5.1,2.5,1.9,2.6-.9,9.3,1.8,9.6,2.1.2,2.3-2.6,4.8-4.6,3.7-3,5.6-6.8,5.5-9.2h0Z"></path><path class="st0" d="M431.9,76.9c-2.5-3.3-4.4-6.2-8.4-6-3.9.3-4.7,2-6.5,1.6-1-.2-2.5-.6-3-2.5-.7-2.5-.8-3.7-3.5-2.3s-6.8-2.6-4.7-5.2c1.4-1.7,3-2.4,6.5-1.9,1.3.2,3.1,1.5,3.8,2.7.6,1,1.7,1,1.7-.7,0-2-.3-3.8,2-4.2,2.9-.5,3.3-2.4,5.2-3.9,3-2.3,4.4-1.6,5.2-3.2.9-1.8-.5-1.9,1.3-3.2,1.2-.9,2,1.5,3.5.8,1.4-.7,1.3-2.8,0-4.9-1.3-2.1-4.7-4.8-7-3.5-2.6,1.5-1.6,2.1-3.9,3.6-1.9,1.3-5.7-1.3-5.3-3.7.3-1.8,2.1-1,4.3-.8,2.9.4,3.3-1,4.8-3.7,1.5-2.7,3.9.2,3.2,1.3-.6,1.1.2,2.2,2.4,3,2.5.9,4.8-1.8,2.6-4.1-6.1-6.2-4.8-8.1-7.2-8.9-2.2-.7-3.9-.4-6.5.7-.9.4-2.7.4-4.2,1.4-2.7,1.8-2.8,3.3-3.7,4.4-.9,1.2-2.4,1.6-3.6,1.9-1.4.3-2.7.9-3.7,1.8-7.9,6.5-11.6,13.4-10,23.9.2,1.1.6,2.1,1.2,3.1,1.9,2.9,4.6,4.9,8.2,5.8,4.3,1.1,8.4,3.1,9.5,4.8,1.6,2.4-1.5,3.6-1.9,6.2-.5,3,.5,5,3.4,7.1,4.3,3.1,5.4,3.9,5.4,6.5,0,2.7,1.1,6.7,3.4,9.6,2.8,3.5,7.9,7.2,9.5,6.2,2.2-1.5-2.3-2.4-2.4-5.7,0-3.4.4-3,3-6.1s1.1-4.6,3.9-7.6c2.6-2.7,3.5-5.5.8-7.8-2.3-2-6.8-2.9-9.3-6.2h0Z"></path></g></g><g><path class="st0" d="M530.9,126.7c-4.1,0-7.5,3.4-7.5,7.5s3.4,7.5,7.5,7.5,7.5-3.4,7.5-7.5-3.4-7.5-7.5-7.5ZM530.9,140.1c-3.3,0-6-2.7-6-6s2.7-6,6-6,6,2.7,6,6-2.7,6-6,6Z"></path><path class="st0" d="M533,134.7c-.2-.2-.5-.4-.8-.4.5-.1.9-.4,1.1-.7s.4-.8.4-1.3c0-.8-.2-1.3-.7-1.6-.5-.4-1.2-.5-2.3-.5h-3.1v7.8h2v-3h.6c.3,0,.6,0,.8.2.2.1.4.4.6.8l1,1.9h2.2l-1.1-2.2c-.2-.5-.4-.8-.7-1h0ZM531.4,133.3c-.2.2-.5.2-.9.2h-.8v-2h.8c.4,0,.7,0,.9.2.2.2.3.4.3.8s0,.6-.3.8Z"></path></g></svg>